C:\Users\Nicos\Documents\OpenSimProjects\SprintingProject\Study1\PredictiveResults\IC_pred_Sprinting_optimum_28-October-2023__10-08-04_p02_maxVel_01___HTD_Minus_4_GRF.mot
version=1
nRows=9
nColumns=127
inDegrees=yes
endheader
time	ground_force_vx	ground_force_vy	ground_force_vz	ground_force_px	ground_force_py	ground_force_pz	ground_torque_x	ground_torque_y	ground_torque_z	1_ground_force_vx	1_ground_force_vy	1_ground_force_vz	1_ground_force_px	1_ground_force_py	1_ground_force_pz	1_ground_torque_x	1_ground_torque_y	1_ground_torque_z	2_ground_force_vx	2_ground_force_vy	2_ground_force_vz	2_ground_force_px	2_ground_force_py	2_ground_force_pz	2_ground_torque_x	2_ground_torque_y	2_ground_torque_z	3_ground_force_vx	3_ground_force_vy	3_ground_force_vz	3_ground_force_px	3_ground_force_py	3_ground_force_pz	3_ground_torque_x	3_ground_torque_y	3_ground_torque_z	4_ground_force_vx	4_ground_force_vy	4_ground_force_vz	4_ground_force_px	4_ground_force_py	4_ground_force_pz	4_ground_torque_x	4_ground_torque_y	4_ground_torque_z	5_ground_force_vx	5_ground_force_vy	5_ground_force_vz	5_ground_force_px	5_ground_force_py	5_ground_force_pz	5_ground_torque_x	5_ground_torque_y	5_ground_torque_z	6_ground_force_vx	6_ground_force_vy	6_ground_force_vz	6_ground_force_px	6_ground_force_py	6_ground_force_pz	6_ground_torque_x	6_ground_torque_y	6_ground_torque_z	7_ground_force_vx	7_ground_force_vy	7_ground_force_vz	7_ground_force_px	7_ground_force_py	7_ground_force_pz	7_ground_torque_x	7_ground_torque_y	7_ground_torque_z	8_ground_force_vx	8_ground_force_vy	8_ground_force_vz	8_ground_force_px	8_ground_force_py	8_ground_force_pz	8_ground_torque_x	8_ground_torque_y	8_ground_torque_z	9_ground_force_vx	9_ground_force_vy	9_ground_force_vz	9_ground_force_px	9_ground_force_py	9_ground_force_pz	9_ground_torque_x	9_ground_torque_y	9_ground_torque_z	10_ground_force_vx	10_ground_force_vy	10_ground_force_vz	10_ground_force_px	10_ground_force_py	10_ground_force_pz	10_ground_torque_x	10_ground_torque_y	10_ground_torque_z	11_ground_force_vx	11_ground_force_vy	11_ground_force_vz	11_ground_force_px	11_ground_force_py	11_ground_force_pz	11_ground_torque_x	11_ground_torque_y	11_ground_torque_z	12_ground_force_vx	12_ground_force_vy	12_ground_force_vz	12_ground_force_px	12_ground_force_py	12_ground_force_pz	12_ground_torque_x	12_ground_torque_y	12_ground_torque_z	13_ground_force_vx	13_ground_force_vy	13_ground_force_vz	13_ground_force_px	13_ground_force_py	13_ground_force_pz	13_ground_torque_x	13_ground_torque_y	13_ground_torque_z
0.103212	339.330875	856.718696	-25.903718	0.390419	-0.019569	0.446377	0.000000	0.000000	0.000000	110.842637	323.791716	14.051695	0.345916	-0.010909	0.460040	0.000000	0.000000	0.000000	73.453975	252.014572	33.546395	0.314571	-0.009828	0.445966	0.000000	0.000000	0.000000	153.916371	460.397678	41.575756	0.319382	-0.014745	0.426050	0.000000	0.000000	0.000000	-0.003147	0.008024	0.000570	0.231225	0.008185	0.459396	0.000000	0.000000	0.000000	-14.585041	133.360709	39.459027	0.286888	-0.006724	0.436214	0.000000	0.000000	0.000000	-0.027421	0.071862	0.010491	0.176157	0.005694	0.397204	0.000000	0.000000	0.000000	-0.000000	0.000000	0.000000	0.405157	0.186925	0.046147	0.000000	0.000000	0.000000	-0.000000	0.000000	0.000000	0.391501	0.210358	0.036954	0.000000	0.000000	0.000000	-0.000000	0.000000	0.000000	0.377118	0.222035	0.050366	0.000000	0.000000	0.000000	-0.000000	0.000000	0.000000	0.371127	0.216017	0.068689	0.000000	0.000000	0.000000	-0.000000	0.000000	0.000000	0.349217	0.265585	0.042642	0.000000	0.000000	0.000000	-0.000000	0.000000	0.000000	0.362206	0.233898	0.061075	0.000000	0.000000	0.000000	-0.000000	0.000000	0.000000	0.302561	0.281352	0.103913	0.000000	0.000000	0.000000
0.105115	382.702122	870.060116	-5.686709	0.389683	-0.019826	0.446412	0.000000	0.000000	0.000000	106.646855	289.572648	27.243291	0.345970	-0.010209	0.460067	0.000000	0.000000	0.000000	54.802257	191.282544	29.315163	0.314921	-0.008314	0.445985	0.000000	0.000000	0.000000	127.498069	380.145046	41.748315	0.319342	-0.013258	0.426005	0.000000	0.000000	0.000000	-0.000099	0.000241	0.000014	0.233211	0.011468	0.459510	0.000000	0.000000	0.000000	-10.747660	74.509917	21.206095	0.287562	-0.004566	0.436221	0.000000	0.000000	0.000000	-0.000220	0.000524	0.000064	0.178126	0.010423	0.397168	0.000000	0.000000	0.000000	-0.000000	0.000000	0.000000	0.441074	0.184872	0.045254	0.000000	0.000000	0.000000	-0.000000	0.000000	0.000000	0.426175	0.208118	0.036097	0.000000	0.000000	0.000000	-0.000000	0.000000	0.000000	0.411379	0.219533	0.049241	0.000000	0.000000	0.000000	-0.000000	0.000000	0.000000	0.405550	0.213398	0.067460	0.000000	0.000000	0.000000	-0.000000	0.000000	0.000000	0.380716	0.262608	0.041320	0.000000	0.000000	0.000000	-0.000000	0.000000	0.000000	0.395552	0.231130	0.059799	0.000000	0.000000	0.000000	-0.000000	0.000000	0.000000	0.332245	0.277522	0.102033	0.000000	0.000000	0.000000
0.106494	412.270352	873.251322	10.469131	0.388970	-0.019973	0.446409	0.000000	0.000000	0.000000	101.327321	261.464563	32.352629	0.345936	-0.009616	0.460055	0.000000	0.000000	0.000000	39.719460	147.264379	27.186267	0.315237	-0.007063	0.445999	0.000000	0.000000	0.000000	105.720306	319.614615	41.976997	0.319356	-0.012017	0.425966	0.000000	0.000000	0.000000	-0.000006	0.000014	0.000001	0.234894	0.014055	0.459638	0.000000	0.000000	0.000000	-7.115963	38.308369	10.165970	0.288167	-0.002822	0.436238	0.000000	0.000000	0.000000	-0.000004	0.000009	0.000001	0.179886	0.014140	0.397195	0.000000	0.000000	0.000000	-0.000000	0.000000	0.000000	0.467227	0.183342	0.044715	0.000000	0.000000	0.000000	-0.000000	0.000000	0.000000	0.451407	0.206435	0.035566	0.000000	0.000000	0.000000	-0.000000	0.000000	0.000000	0.436323	0.217659	0.048510	0.000000	0.000000	0.000000	-0.000000	0.000000	0.000000	0.430631	0.211442	0.066662	0.000000	0.000000	0.000000	-0.000000	0.000000	0.000000	0.403633	0.260351	0.040409	0.000000	0.000000	0.000000	-0.000000	0.000000	0.000000	0.419838	0.229052	0.058951	0.000000	0.000000	0.000000	-0.000000	0.000000	0.000000	0.353898	0.274626	0.100712	0.000000	0.000000	0.000000
0.107096	424.563446	872.534832	18.185461	0.388609	-0.020021	0.446396	0.000000	0.000000	0.000000	98.392965	248.310184	33.850086	0.345903	-0.009329	0.460040	0.000000	0.000000	0.000000	33.240777	128.437494	25.802851	0.315396	-0.006473	0.446005	0.000000	0.000000	0.000000	95.893209	292.928061	41.702289	0.319379	-0.011429	0.425946	0.000000	0.000000	0.000000	-0.000002	0.000004	0.000000	0.235701	0.015240	0.459706	0.000000	0.000000	0.000000	-5.079960	25.157701	6.458884	0.288467	-0.002011	0.436248	0.000000	0.000000	0.000000	-0.000001	0.000001	0.000000	0.180752	0.015838	0.397222	0.000000	0.000000	0.000000	-0.000000	0.000000	0.000000	0.478680	0.182663	0.044508	0.000000	0.000000	0.000000	-0.000000	0.000000	0.000000	0.462453	0.205686	0.035358	0.000000	0.000000	0.000000	-0.000000	0.000000	0.000000	0.447245	0.216825	0.048214	0.000000	0.000000	0.000000	-0.000000	0.000000	0.000000	0.441619	0.210574	0.066338	0.000000	0.000000	0.000000	-0.000000	0.000000	0.000000	0.413664	0.259341	0.040024	0.000000	0.000000	0.000000	-0.000000	0.000000	0.000000	0.430474	0.228127	0.058601	0.000000	0.000000	0.000000	-0.000000	0.000000	0.000000	0.363393	0.273331	0.100148	0.000000	0.000000	0.000000
0.108999	458.785361	860.207571	41.333586	0.387271	-0.020074	0.446305	0.000000	0.000000	0.000000	86.427367	203.371070	35.194633	0.345730	-0.008289	0.459945	0.000000	0.000000	0.000000	15.125907	72.492404	18.432659	0.316001	-0.004423	0.446025	0.000000	0.000000	0.000000	65.108410	209.398321	37.292781	0.319534	-0.009374	0.425878	0.000000	0.000000	0.000000	-0.000000	0.000000	0.000000	0.238559	0.019205	0.459974	0.000000	0.000000	0.000000	-1.069472	4.229275	0.944658	0.289584	0.000761	0.436296	0.000000	0.000000	0.000000	-0.000000	0.000000	0.000000	0.183915	0.021495	0.397378	0.000000	0.000000	0.000000	-0.000000	0.000000	0.000000	0.514980	0.180483	0.043958	0.000000	0.000000	0.000000	-0.000000	0.000000	0.000000	0.497453	0.203265	0.034789	0.000000	0.000000	0.000000	-0.000000	0.000000	0.000000	0.481868	0.214139	0.047363	0.000000	0.000000	0.000000	-0.000000	0.000000	0.000000	0.476469	0.207782	0.065409	0.000000	0.000000	0.000000	-0.000000	0.000000	0.000000	0.445465	0.256054	0.038865	0.000000	0.000000	0.000000	-0.000000	0.000000	0.000000	0.464208	0.225137	0.057576	0.000000	0.000000	0.000000	-0.000000	0.000000	0.000000	0.393565	0.269128	0.098429	0.000000	0.000000	0.000000
0.110378	478.169989	841.233634	58.287825	0.386108	-0.020000	0.446180	0.000000	0.000000	0.000000	75.206760	168.411619	33.637957	0.345547	-0.007392	0.459825	0.000000	0.000000	0.000000	5.707563	37.810910	11.088811	0.316555	-0.002755	0.446039	0.000000	0.000000	0.000000	44.204071	151.817676	31.602107	0.319748	-0.007694	0.425822	0.000000	0.000000	0.000000	-0.000000	0.000000	0.000000	0.240952	0.022285	0.460216	0.000000	0.000000	0.000000	-0.294859	1.038941	0.208819	0.290574	0.002968	0.436343	0.000000	0.000000	0.000000	-0.000000	0.000000	0.000000	0.186652	0.025860	0.397562	0.000000	0.000000	0.000000	-0.000000	0.000000	0.000000	0.541396	0.178875	0.043648	0.000000	0.000000	0.000000	-0.000000	0.000000	0.000000	0.522916	0.201465	0.034453	0.000000	0.000000	0.000000	-0.000000	0.000000	0.000000	0.507068	0.212147	0.046823	0.000000	0.000000	0.000000	-0.000000	0.000000	0.000000	0.501851	0.205717	0.064820	0.000000	0.000000	0.000000	-0.000000	0.000000	0.000000	0.468618	0.253590	0.038080	0.000000	0.000000	0.000000	-0.000000	0.000000	0.000000	0.488775	0.222913	0.056908	0.000000	0.000000	0.000000	-0.000000	0.000000	0.000000	0.415604	0.265980	0.097245	0.000000	0.000000	0.000000
0.110980	483.944712	829.876197	66.518049	0.385555	-0.019931	0.446108	0.000000	0.000000	0.000000	69.530511	152.733705	32.219464	0.345459	-0.006958	0.459760	0.000000	0.000000	0.000000	3.265393	25.184067	7.684713	0.316828	-0.001980	0.446044	0.000000	0.000000	0.000000	36.160796	128.165538	28.435581	0.319868	-0.006910	0.425795	0.000000	0.000000	0.000000	-0.000000	0.000000	0.000000	0.242086	0.023683	0.460334	0.000000	0.000000	0.000000	-0.128933	0.443010	0.087960	0.291057	0.003983	0.436367	0.000000	0.000000	0.000000	-0.000000	0.000000	0.000000	0.187973	0.027834	0.397661	0.000000	0.000000	0.000000	-0.000000	0.000000	0.000000	0.552958	0.178166	0.043531	0.000000	0.000000	0.000000	-0.000000	0.000000	0.000000	0.534061	0.200668	0.034323	0.000000	0.000000	0.000000	-0.000000	0.000000	0.000000	0.518101	0.211266	0.046606	0.000000	0.000000	0.000000	-0.000000	0.000000	0.000000	0.512967	0.204805	0.064582	0.000000	0.000000	0.000000	-0.000000	0.000000	0.000000	0.478759	0.252493	0.037752	0.000000	0.000000	0.000000	-0.000000	0.000000	0.000000	0.499536	0.221929	0.056634	0.000000	0.000000	0.000000	-0.000000	0.000000	0.000000	0.425275	0.264580	0.096746	0.000000	0.000000	0.000000
0.112883	497.890199	783.786702	89.474567	0.383577	-0.019567	0.445797	0.000000	0.000000	0.000000	50.315850	103.227591	26.303310	0.345116	-0.005416	0.459473	0.000000	0.000000	0.000000	-0.100755	4.518086	1.511063	0.317879	0.000671	0.446062	0.000000	0.000000	0.000000	13.133373	61.289095	17.278554	0.320426	-0.004221	0.425708	0.000000	0.000000	0.000000	-0.000000	0.000000	0.000000	0.246075	0.028297	0.460764	0.000000	0.000000	0.000000	-0.005499	0.016406	0.002755	0.292843	0.007398	0.436462	0.000000	0.000000	0.000000	-0.000000	0.000000	0.000000	0.192700	0.034309	0.398061	0.000000	0.000000	0.000000	-0.000000	0.000000	-0.000000	0.589602	0.175908	0.043230	0.000000	0.000000	0.000000	-0.000000	0.000000	-0.000000	0.569380	0.198115	0.033975	0.000000	0.000000	0.000000	-0.000000	0.000000	0.000000	0.553070	0.208446	0.045983	0.000000	0.000000	0.000000	-0.000000	0.000000	0.000000	0.548218	0.201891	0.063901	0.000000	0.000000	0.000000	-0.000000	0.000000	0.000000	0.510922	0.248954	0.036775	0.000000	0.000000	0.000000	-0.000000	0.000000	0.000000	0.533662	0.218769	0.055835	0.000000	0.000000	0.000000	-0.000000	0.000000	0.000000	0.456028	0.260061	0.095242	0.000000	0.000000	0.000000
0.114262	486.253006	735.262519	101.411629	0.381980	-0.019123	0.445492	0.000000	0.000000	0.000000	34.163830	68.422553	18.704730	0.344862	-0.004111	0.459207	0.000000	0.000000	0.000000	-0.084144	1.235680	0.411693	0.318817	0.002776	0.446079	0.000000	0.000000	0.000000	4.354788	24.168989	7.397698	0.320996	-0.002077	0.425645	0.000000	0.000000	0.000000	-0.000000	0.000000	0.000000	0.249362	0.031820	0.461129	0.000000	0.000000	0.000000	-0.000354	0.001003	0.000160	0.294389	0.010064	0.436550	0.000000	0.000000	0.000000	-0.000000	0.000000	0.000000	0.196676	0.039217	0.398434	0.000000	0.000000	0.000000	-0.000000	0.000000	-0.000000	0.616265	0.174257	0.043066	0.000000	0.000000	0.000000	-0.000000	0.000000	-0.000000	0.595079	0.196234	0.033774	0.000000	0.000000	0.000000	-0.000000	0.000000	0.000000	0.578520	0.206371	0.045589	0.000000	0.000000	0.000000	-0.000000	0.000000	0.000000	0.573888	0.199750	0.063469	0.000000	0.000000	0.000000	-0.000000	0.000000	0.000000	0.534353	0.246322	0.036123	0.000000	0.000000	0.000000	-0.000000	0.000000	0.000000	0.558517	0.216436	0.055316	0.000000	0.000000	0.000000	-0.000000	0.000000	0.000000	0.478506	0.256700	0.094222	0.000000	0.000000	0.000000
